<mxfile host="app.diagrams.net" agent="Mozilla/5.0 (Windows NT 10.0; Win64; x64) AppleWebKit/537.36 (KHTML, like Gecko) Chrome/126.0.0.0 Safari/537.36 Edg/126.0.0.0" version="24.7.4">
  <diagram name="第 1 页" id="_XGFoA1j_tSr3OOL8-0U">
    <mxGraphModel dx="696" dy="885" grid="1" gridSize="10" guides="1" tooltips="1" connect="1" arrows="1" fold="1" page="1" pageScale="1" pageWidth="827" pageHeight="1169" math="0" shadow="0">
      <root>
        <mxCell id="0" />
        <mxCell id="1" parent="0" />
        <mxCell id="v-xJcE9BudohOS0duE_a-4" value="" style="edgeStyle=orthogonalEdgeStyle;rounded=0;orthogonalLoop=1;jettySize=auto;html=1;" edge="1" parent="1" source="v-xJcE9BudohOS0duE_a-1" target="v-xJcE9BudohOS0duE_a-3">
          <mxGeometry relative="1" as="geometry" />
        </mxCell>
        <mxCell id="v-xJcE9BudohOS0duE_a-1" value="我的服务器&lt;br&gt;goaction.top" style="rounded=0;whiteSpace=wrap;html=1;" vertex="1" parent="1">
          <mxGeometry x="60" y="170" width="120" height="60" as="geometry" />
        </mxCell>
        <mxCell id="v-xJcE9BudohOS0duE_a-2" value="github服务器" style="rounded=0;whiteSpace=wrap;html=1;" vertex="1" parent="1">
          <mxGeometry x="414" y="170" width="120" height="60" as="geometry" />
        </mxCell>
        <mxCell id="v-xJcE9BudohOS0duE_a-6" value="" style="edgeStyle=orthogonalEdgeStyle;rounded=0;orthogonalLoop=1;jettySize=auto;html=1;" edge="1" parent="1" source="v-xJcE9BudohOS0duE_a-3" target="v-xJcE9BudohOS0duE_a-5">
          <mxGeometry relative="1" as="geometry" />
        </mxCell>
        <mxCell id="v-xJcE9BudohOS0duE_a-3" value="dns 解析" style="rounded=0;whiteSpace=wrap;html=1;" vertex="1" parent="1">
          <mxGeometry x="60" y="310" width="120" height="60" as="geometry" />
        </mxCell>
        <mxCell id="v-xJcE9BudohOS0duE_a-8" value="" style="edgeStyle=orthogonalEdgeStyle;rounded=0;orthogonalLoop=1;jettySize=auto;html=1;entryX=0;entryY=0.5;entryDx=0;entryDy=0;" edge="1" parent="1" source="v-xJcE9BudohOS0duE_a-5" target="v-xJcE9BudohOS0duE_a-2">
          <mxGeometry relative="1" as="geometry">
            <mxPoint x="280" y="480" as="targetPoint" />
          </mxGeometry>
        </mxCell>
        <mxCell id="v-xJcE9BudohOS0duE_a-9" value="id" style="edgeLabel;html=1;align=center;verticalAlign=middle;resizable=0;points=[];" vertex="1" connectable="0" parent="v-xJcE9BudohOS0duE_a-8">
          <mxGeometry y="1" relative="1" as="geometry">
            <mxPoint as="offset" />
          </mxGeometry>
        </mxCell>
        <mxCell id="v-xJcE9BudohOS0duE_a-5" value="github.goaction.top" style="whiteSpace=wrap;html=1;rounded=0;" vertex="1" parent="1">
          <mxGeometry x="60" y="450" width="120" height="60" as="geometry" />
        </mxCell>
        <mxCell id="v-xJcE9BudohOS0duE_a-11" value="" style="edgeStyle=orthogonalEdgeStyle;rounded=0;orthogonalLoop=1;jettySize=auto;html=1;" edge="1" parent="1" source="v-xJcE9BudohOS0duE_a-10" target="v-xJcE9BudohOS0duE_a-2">
          <mxGeometry relative="1" as="geometry" />
        </mxCell>
        <mxCell id="v-xJcE9BudohOS0duE_a-13" value="" style="edgeStyle=orthogonalEdgeStyle;rounded=0;orthogonalLoop=1;jettySize=auto;html=1;" edge="1" parent="1" source="v-xJcE9BudohOS0duE_a-10" target="v-xJcE9BudohOS0duE_a-12">
          <mxGeometry relative="1" as="geometry" />
        </mxCell>
        <mxCell id="v-xJcE9BudohOS0duE_a-10" value="前端代码" style="rounded=0;whiteSpace=wrap;html=1;" vertex="1" parent="1">
          <mxGeometry x="414" y="30" width="120" height="60" as="geometry" />
        </mxCell>
        <mxCell id="v-xJcE9BudohOS0duE_a-12" value="请求接口" style="rounded=0;whiteSpace=wrap;html=1;" vertex="1" parent="1">
          <mxGeometry x="650" y="80" width="120" height="60" as="geometry" />
        </mxCell>
      </root>
    </mxGraphModel>
  </diagram>
</mxfile>
